custom-analysis
version=1
nRows=4
nColumns=98
inDegrees=no

This file contains tibia displacement and acting force.

Units are S.I. units (seconds, meters, Newtons, ...)
Angles are in degrees.

endheader
time	APT	SIT	knee_angle	aACL_R_force	pACL_R_force	aPCL_R_force	pPCL_R_force	aMCL_R_force	mMCL_R_force	pMCL_R_force	aLCL_R_force	mLCL_R_force	pLCL_R_force	aPCL_L_force	pPCL_L_force	aMCL_L_force	aLCL_L_force	aACL_R_length	pACL_R_length	aPCL_R_length	pPCL_R_length	aMCL_R_length	mMCL_R_length	pMCL_R_length	aLCL_R_length	mLCL_R_length	pLCL_R_length	aPCL_L_length	pPCL_L_length	aMCL_L_length	aLCL_L_length	aACL_R_strain	pACL_R_strain	aPCL_R_strain	pPCL_R_strain	aMCL_R_strain	mMCL_R_strain	pMCL_R_strain	aLCL_R_strain	mLCL_R_strain	pLCL_R_strain	aPCL_L_strain	pPCL_L_strain	aMCL_L_strain	aLCL_L_strain	femur_lat_meniscii_r.femur_lat_r.force.X	femur_lat_meniscii_r.femur_lat_r.force.Y	femur_lat_meniscii_r.femur_lat_r.force.Z	femur_lat_meniscii_r.femur_lat_r.torque.X	femur_lat_meniscii_r.femur_lat_r.torque.Y	femur_lat_meniscii_r.femur_lat_r.torque.Z	femur_lat_meniscii_r.meniscus_lat_r.force.X	femur_lat_meniscii_r.meniscus_lat_r.force.Y	femur_lat_meniscii_r.meniscus_lat_r.force.Z	femur_lat_meniscii_r.meniscus_lat_r.torque.X	femur_lat_meniscii_r.meniscus_lat_r.torque.Y	femur_lat_meniscii_r.meniscus_lat_r.torque.Z	femur_med_meniscii_r.femur_med_r.force.X	femur_med_meniscii_r.femur_med_r.force.Y	femur_med_meniscii_r.femur_med_r.force.Z	femur_med_meniscii_r.femur_med_r.torque.X	femur_med_meniscii_r.femur_med_r.torque.Y	femur_med_meniscii_r.femur_med_r.torque.Z	femur_med_meniscii_r.meniscus_med_r.force.X	femur_med_meniscii_r.meniscus_med_r.force.Y	femur_med_meniscii_r.meniscus_med_r.force.Z	femur_med_meniscii_r.meniscus_med_r.torque.X	femur_med_meniscii_r.meniscus_med_r.torque.Y	femur_med_meniscii_r.meniscus_med_r.torque.Z	femur_med_tibia_r.tibia_upper_r.force.X	femur_med_tibia_r.tibia_upper_r.force.Y	femur_med_tibia_r.tibia_upper_r.force.Z	femur_med_tibia_r.tibia_upper_r.torque.X	femur_med_tibia_r.tibia_upper_r.torque.Y	femur_med_tibia_r.tibia_upper_r.torque.Z	femur_med_tibia_r.femur_med_r.force.X	femur_med_tibia_r.femur_med_r.force.Y	femur_med_tibia_r.femur_med_r.force.Z	femur_med_tibia_r.femur_med_r.torque.X	femur_med_tibia_r.femur_med_r.torque.Y	femur_med_tibia_r.femur_med_r.torque.Z	femur_lat_tibia_r.tibia_upper_r.force.X	femur_lat_tibia_r.tibia_upper_r.force.Y	femur_lat_tibia_r.tibia_upper_r.force.Z	femur_lat_tibia_r.tibia_upper_r.torque.X	femur_lat_tibia_r.tibia_upper_r.torque.Y	femur_lat_tibia_r.tibia_upper_r.torque.Z	femur_lat_tibia_r.femur_lat_r.force.X	femur_lat_tibia_r.femur_lat_r.force.Y	femur_lat_tibia_r.femur_lat_r.force.Z	femur_lat_tibia_r.femur_lat_r.torque.X	femur_lat_tibia_r.femur_lat_r.torque.Y	femur_lat_tibia_r.femur_lat_r.torque.Z	femur_lat_meniscii_force_r	femur_med_meniscii_force_r	femur_lat_tibia_force_r	femur_med_tibia_force_r
      0.07583994	      0.00871360	      0.00423132	     15.16171101	     90.04816842	     74.83110987	      0.00000000	      0.00000000	      0.00000000	     -5.58960941	    -23.98846866	      0.00000000	      0.00000000	      0.00000000	      0.00000000	      0.00000000	      0.00000001	      0.00000000	      0.03417927	      0.02750235	      0.02739886	      0.02741722	      0.05645020	      0.05999623	      0.06089013	      0.05284529	      0.05069736	      0.04800817	      0.01525851	      0.01651186	      0.06550154	      0.04489616	      0.10236136	      0.09751708	     -0.11887446	     -0.08266190	     -0.05958660	      0.00339054	      0.03681597	     -0.05594983	     -0.09981144	     -0.08281063	      0.00000079	     -0.32847694	      0.00000060	     -0.00000086	     30.84179801	    152.11148861	     13.35267939	     -9.15716098	      0.73955774	     13.03152962	    -30.84179801	   -152.11148861	    -13.35267939	      4.53558393	     -0.95500754	      0.09768059	     15.73817241	     68.06780103	      1.04585584	      0.97149678	     -0.29276708	      6.32471225	    -15.73817241	    -68.06780103	     -1.04585584	     -1.15068658	      0.23252299	      0.29264598	    -37.47510309	   -724.91768067	     87.44946746	    -15.32662373	      1.07602281	      3.12632793	     37.47510309	    724.91768067	    -87.44946746	     51.19710565	     -0.44453005	     17.48020439	     -7.73057373	   -453.66072805	    -98.26321169	     15.27219049	     -0.72085552	      2.15992261	      7.73057373	    453.66072805	     98.26321169	    -51.44985413	     -0.15096993	      4.71128637	    155.78002285	     69.87137770	    464.24506105	    731.13434912
      0.07703746	      0.00890043	      0.00433375	     15.57727173	     92.26389047	     75.85466150	      0.00000000	      0.00000000	      0.00000000	     -4.35242365	    -23.56313896	      0.00000000	      0.00000000	      0.00000000	      0.00000000	      0.00000000	      0.00000001	      0.00000000	      0.03421505	      0.02751313	      0.02741838	      0.02741156	      0.05648925	      0.05998805	      0.06083478	      0.05282502	      0.05065210	      0.04793420	      0.01525851	      0.01651186	      0.06550154	      0.04489616	      0.10351544	      0.09794705	     -0.11824686	     -0.08285110	     -0.05893590	      0.00325375	      0.03587352	     -0.05631193	     -0.10061507	     -0.08422375	      0.00000079	     -0.32847694	      0.00000060	     -0.00000086	     30.26002655	    152.32647560	     13.39739121	     -9.17697070	      0.72142873	     12.77927087	    -30.26002655	   -152.32647560	    -13.39739121	      4.53693856	     -0.93799794	      0.16330267	     15.50646241	     66.51549661	      0.39026951	      1.20861893	     -0.28705179	      6.22614377	    -15.50646241	    -66.51549661	     -0.39026951	     -1.14241468	      0.23330248	      0.30413525	    -50.32692596	   -719.24880678	     86.88373527	    -15.20947324	      1.32320655	      2.85244018	     50.32692596	    719.24880678	    -86.88373527	     50.83817133	     -0.71854380	     22.79086124	     -7.78271077	   -439.13886593	    -94.83314488	     14.76817268	     -0.73433035	      2.22572296	      7.78271077	    439.13886593	     94.83314488	    -49.68565929	     -0.12908889	      4.63805496	    155.87980776	     68.30017552	    449.32932190	    726.22340157
      0.07848406	      0.00912805	      0.00445945	     16.08541379	     93.62990376	     75.72618904	      0.00000000	      0.00000000	      0.00000000	     -2.65436168	    -22.87777846	      0.00000000	      0.00000000	      0.00000000	      0.00000000	      0.00000000	      0.00000001	      0.00000000	      0.03425787	      0.02752539	      0.02744345	      0.02740560	      0.05653982	      0.05998058	      0.06076958	      0.05279957	      0.05059581	      0.04784274	      0.01525851	      0.01651186	      0.06550154	      0.04489616	      0.10489652	      0.09843653	     -0.11744067	     -0.08305064	     -0.05809356	      0.00312870	      0.03476333	     -0.05676643	     -0.10161453	     -0.08597116	      0.00000079	     -0.32847694	      0.00000060	     -0.00000086	     26.99181230	    154.04705117	     14.35316663	     -9.62229516	      0.64196523	     11.39281527	    -26.99181230	   -154.04705117	    -14.35316663	      4.61944139	     -0.85997421	      0.35509619	     15.97087107	     67.53630084	      0.22362359	      1.28924746	     -0.29016301	      6.40281756	    -15.97087107	    -67.53630084	     -0.22362359	     -1.15663304	      0.23649841	      0.33323691	    -54.36383948	   -712.36055809	     81.40050388	    -14.85921867	      1.40045300	      3.00184444	     54.36383948	    712.36055809	    -81.40050388	     48.35859577	     -0.83464261	     24.32250440	     -0.50087920	   -423.68665766	    -93.19156485	     14.31511504	     -0.58287783	      2.60629380	      0.50087920	    423.68665766	     93.19156485	    -48.66101079	     -0.26770305	      1.44539174	    157.05115503	     69.39935634	    433.81482515	    719.05426346
      0.07924901	      0.00924782	      0.00452669	     16.35663592	     94.12520246	     75.44814356	      0.00000000	      0.00000000	      0.00000000	     -2.40865628	    -23.16302929	      0.00000000	      0.00000000	      0.00000000	      0.00000000	      0.00000000	      0.00000001	      0.00000000	      0.03427929	      0.02753049	      0.02745815	      0.02740359	      0.05656816	      0.05997783	      0.06073597	      0.05278587	      0.05056547	      0.04779359	      0.01525851	      0.01651186	      0.06550154	      0.04489616	      0.10558731	      0.09864008	     -0.11696782	     -0.08311793	     -0.05762148	      0.00308279	      0.03419097	     -0.05701129	     -0.10215325	     -0.08691004	      0.00000079	     -0.32847694	      0.00000060	     -0.00000086	     26.07579580	    155.55377658	     13.23978244	     -9.18870420	      0.63176050	     11.00157949	    -26.07579580	   -155.55377658	    -13.23978244	      4.61637302	     -0.83842411	      0.43172618	     16.97239294	     69.03446714	      0.09837364	      1.36885048	     -0.31424943	      6.81062623	    -16.97239294	    -69.03446714	     -0.09837364	     -1.18376335	      0.25856530	      0.33308333	    -56.21096085	   -707.18513299	     81.19399999	    -14.75894413	      1.45552072	      3.07991542	     56.21096085	    707.18513299	    -81.19399999	     48.15997734	     -0.88561851	     25.00751149	      3.18840114	   -417.54194041	    -90.42562340	     14.04888895	     -0.49297339	      2.80938952	     -3.18840114	    417.54194041	     90.42562340	    -47.35832065	     -0.33346742	     -0.16777246	    158.27891955	     71.09029084	    427.23322819	    714.04688227
